<mxfile host="app.diagrams.net" modified="2023-07-24T18:11:13.311Z" agent="Mozilla/5.0 (Windows NT 10.0; Win64; x64) AppleWebKit/537.36 (KHTML, like Gecko) Chrome/114.0.0.0 Safari/537.36 OPR/100.0.0.0" etag="LPRvTwV2Zcl3ZWmLK-di" version="21.5.2">
  <diagram name="Seite-1" id="kHf-WrBzQYWUcHvc4sP6">
    <mxGraphModel dx="961" dy="550" grid="1" gridSize="10" guides="1" tooltips="1" connect="1" arrows="1" fold="1" page="1" pageScale="1" pageWidth="827" pageHeight="1169" math="0" shadow="0">
      <root>
        <mxCell id="0" />
        <mxCell id="1" parent="0" />
        <mxCell id="-pxFj7mfdjv1AFyYW9a7-1" value="" style="rounded=0;whiteSpace=wrap;html=1;" vertex="1" parent="1">
          <mxGeometry x="200" y="320" width="20" height="20" as="geometry" />
        </mxCell>
        <mxCell id="-pxFj7mfdjv1AFyYW9a7-2" value="" style="rounded=0;whiteSpace=wrap;html=1;" vertex="1" parent="1">
          <mxGeometry x="220" y="320" width="20" height="20" as="geometry" />
        </mxCell>
        <mxCell id="-pxFj7mfdjv1AFyYW9a7-6" value="" style="rounded=0;whiteSpace=wrap;html=1;" vertex="1" parent="1">
          <mxGeometry x="200" y="340" width="20" height="20" as="geometry" />
        </mxCell>
        <mxCell id="-pxFj7mfdjv1AFyYW9a7-7" value="" style="rounded=0;whiteSpace=wrap;html=1;" vertex="1" parent="1">
          <mxGeometry x="220" y="340" width="20" height="20" as="geometry" />
        </mxCell>
        <mxCell id="-pxFj7mfdjv1AFyYW9a7-11" value="" style="rounded=0;whiteSpace=wrap;html=1;" vertex="1" parent="1">
          <mxGeometry x="200" y="360" width="20" height="20" as="geometry" />
        </mxCell>
        <mxCell id="-pxFj7mfdjv1AFyYW9a7-12" value="" style="rounded=0;whiteSpace=wrap;html=1;" vertex="1" parent="1">
          <mxGeometry x="220" y="360" width="20" height="20" as="geometry" />
        </mxCell>
        <mxCell id="-pxFj7mfdjv1AFyYW9a7-16" value="" style="rounded=0;whiteSpace=wrap;html=1;" vertex="1" parent="1">
          <mxGeometry x="200" y="380" width="20" height="20" as="geometry" />
        </mxCell>
        <mxCell id="-pxFj7mfdjv1AFyYW9a7-17" value="" style="rounded=0;whiteSpace=wrap;html=1;" vertex="1" parent="1">
          <mxGeometry x="220" y="380" width="20" height="20" as="geometry" />
        </mxCell>
        <mxCell id="-pxFj7mfdjv1AFyYW9a7-21" value="" style="rounded=0;whiteSpace=wrap;html=1;" vertex="1" parent="1">
          <mxGeometry x="200" y="400" width="20" height="20" as="geometry" />
        </mxCell>
        <mxCell id="-pxFj7mfdjv1AFyYW9a7-22" value="" style="rounded=0;whiteSpace=wrap;html=1;" vertex="1" parent="1">
          <mxGeometry x="220" y="400" width="20" height="20" as="geometry" />
        </mxCell>
        <mxCell id="-pxFj7mfdjv1AFyYW9a7-51" value="" style="rounded=0;whiteSpace=wrap;html=1;" vertex="1" parent="1">
          <mxGeometry x="240" y="320" width="20" height="20" as="geometry" />
        </mxCell>
        <mxCell id="-pxFj7mfdjv1AFyYW9a7-52" value="" style="rounded=0;whiteSpace=wrap;html=1;" vertex="1" parent="1">
          <mxGeometry x="260" y="320" width="20" height="20" as="geometry" />
        </mxCell>
        <mxCell id="-pxFj7mfdjv1AFyYW9a7-53" value="" style="rounded=0;whiteSpace=wrap;html=1;" vertex="1" parent="1">
          <mxGeometry x="240" y="340" width="20" height="20" as="geometry" />
        </mxCell>
        <mxCell id="-pxFj7mfdjv1AFyYW9a7-54" value="" style="rounded=0;whiteSpace=wrap;html=1;" vertex="1" parent="1">
          <mxGeometry x="260" y="340" width="20" height="20" as="geometry" />
        </mxCell>
        <mxCell id="-pxFj7mfdjv1AFyYW9a7-55" value="" style="rounded=0;whiteSpace=wrap;html=1;" vertex="1" parent="1">
          <mxGeometry x="240" y="360" width="20" height="20" as="geometry" />
        </mxCell>
        <mxCell id="-pxFj7mfdjv1AFyYW9a7-56" value="" style="rounded=0;whiteSpace=wrap;html=1;" vertex="1" parent="1">
          <mxGeometry x="260" y="360" width="20" height="20" as="geometry" />
        </mxCell>
        <mxCell id="-pxFj7mfdjv1AFyYW9a7-57" value="" style="rounded=0;whiteSpace=wrap;html=1;" vertex="1" parent="1">
          <mxGeometry x="240" y="380" width="20" height="20" as="geometry" />
        </mxCell>
        <mxCell id="-pxFj7mfdjv1AFyYW9a7-58" value="" style="rounded=0;whiteSpace=wrap;html=1;" vertex="1" parent="1">
          <mxGeometry x="260" y="380" width="20" height="20" as="geometry" />
        </mxCell>
        <mxCell id="-pxFj7mfdjv1AFyYW9a7-59" value="" style="rounded=0;whiteSpace=wrap;html=1;" vertex="1" parent="1">
          <mxGeometry x="240" y="400" width="20" height="20" as="geometry" />
        </mxCell>
        <mxCell id="-pxFj7mfdjv1AFyYW9a7-60" value="" style="rounded=0;whiteSpace=wrap;html=1;" vertex="1" parent="1">
          <mxGeometry x="260" y="400" width="20" height="20" as="geometry" />
        </mxCell>
        <mxCell id="-pxFj7mfdjv1AFyYW9a7-61" value="" style="rounded=0;whiteSpace=wrap;html=1;" vertex="1" parent="1">
          <mxGeometry x="280" y="320" width="20" height="20" as="geometry" />
        </mxCell>
        <mxCell id="-pxFj7mfdjv1AFyYW9a7-62" value="" style="rounded=0;whiteSpace=wrap;html=1;" vertex="1" parent="1">
          <mxGeometry x="300" y="320" width="20" height="20" as="geometry" />
        </mxCell>
        <mxCell id="-pxFj7mfdjv1AFyYW9a7-63" value="" style="rounded=0;whiteSpace=wrap;html=1;" vertex="1" parent="1">
          <mxGeometry x="280" y="340" width="20" height="20" as="geometry" />
        </mxCell>
        <mxCell id="-pxFj7mfdjv1AFyYW9a7-64" value="" style="rounded=0;whiteSpace=wrap;html=1;fillColor=#fff2cc;strokeColor=#d6b656;" vertex="1" parent="1">
          <mxGeometry x="300" y="340" width="20" height="20" as="geometry" />
        </mxCell>
        <mxCell id="-pxFj7mfdjv1AFyYW9a7-65" value="" style="rounded=0;whiteSpace=wrap;html=1;" vertex="1" parent="1">
          <mxGeometry x="280" y="360" width="20" height="20" as="geometry" />
        </mxCell>
        <mxCell id="-pxFj7mfdjv1AFyYW9a7-66" value="" style="rounded=0;whiteSpace=wrap;html=1;fillColor=#dae8fc;strokeColor=#6c8ebf;" vertex="1" parent="1">
          <mxGeometry x="300" y="360" width="20" height="20" as="geometry" />
        </mxCell>
        <mxCell id="-pxFj7mfdjv1AFyYW9a7-67" value="" style="rounded=0;whiteSpace=wrap;html=1;fillColor=#fff2cc;strokeColor=#d6b656;" vertex="1" parent="1">
          <mxGeometry x="280" y="380" width="20" height="20" as="geometry" />
        </mxCell>
        <mxCell id="-pxFj7mfdjv1AFyYW9a7-68" value="" style="rounded=0;whiteSpace=wrap;html=1;" vertex="1" parent="1">
          <mxGeometry x="300" y="380" width="20" height="20" as="geometry" />
        </mxCell>
        <mxCell id="-pxFj7mfdjv1AFyYW9a7-69" value="" style="rounded=0;whiteSpace=wrap;html=1;" vertex="1" parent="1">
          <mxGeometry x="280" y="400" width="20" height="20" as="geometry" />
        </mxCell>
        <mxCell id="-pxFj7mfdjv1AFyYW9a7-70" value="" style="rounded=0;whiteSpace=wrap;html=1;" vertex="1" parent="1">
          <mxGeometry x="300" y="400" width="20" height="20" as="geometry" />
        </mxCell>
        <mxCell id="-pxFj7mfdjv1AFyYW9a7-71" value="" style="rounded=0;whiteSpace=wrap;html=1;" vertex="1" parent="1">
          <mxGeometry x="320" y="320" width="20" height="20" as="geometry" />
        </mxCell>
        <mxCell id="-pxFj7mfdjv1AFyYW9a7-72" value="" style="rounded=0;whiteSpace=wrap;html=1;" vertex="1" parent="1">
          <mxGeometry x="340" y="320" width="20" height="20" as="geometry" />
        </mxCell>
        <mxCell id="-pxFj7mfdjv1AFyYW9a7-73" value="" style="rounded=0;whiteSpace=wrap;html=1;" vertex="1" parent="1">
          <mxGeometry x="320" y="340" width="20" height="20" as="geometry" />
        </mxCell>
        <mxCell id="-pxFj7mfdjv1AFyYW9a7-74" value="" style="rounded=0;whiteSpace=wrap;html=1;" vertex="1" parent="1">
          <mxGeometry x="340" y="340" width="20" height="20" as="geometry" />
        </mxCell>
        <mxCell id="-pxFj7mfdjv1AFyYW9a7-75" value="" style="rounded=0;whiteSpace=wrap;html=1;" vertex="1" parent="1">
          <mxGeometry x="320" y="360" width="20" height="20" as="geometry" />
        </mxCell>
        <mxCell id="-pxFj7mfdjv1AFyYW9a7-76" value="" style="rounded=0;whiteSpace=wrap;html=1;" vertex="1" parent="1">
          <mxGeometry x="340" y="360" width="20" height="20" as="geometry" />
        </mxCell>
        <mxCell id="-pxFj7mfdjv1AFyYW9a7-77" value="" style="rounded=0;whiteSpace=wrap;html=1;" vertex="1" parent="1">
          <mxGeometry x="320" y="380" width="20" height="20" as="geometry" />
        </mxCell>
        <mxCell id="-pxFj7mfdjv1AFyYW9a7-78" value="" style="rounded=0;whiteSpace=wrap;html=1;" vertex="1" parent="1">
          <mxGeometry x="340" y="380" width="20" height="20" as="geometry" />
        </mxCell>
        <mxCell id="-pxFj7mfdjv1AFyYW9a7-79" value="" style="rounded=0;whiteSpace=wrap;html=1;" vertex="1" parent="1">
          <mxGeometry x="320" y="400" width="20" height="20" as="geometry" />
        </mxCell>
        <mxCell id="-pxFj7mfdjv1AFyYW9a7-80" value="" style="rounded=0;whiteSpace=wrap;html=1;" vertex="1" parent="1">
          <mxGeometry x="340" y="400" width="20" height="20" as="geometry" />
        </mxCell>
        <mxCell id="-pxFj7mfdjv1AFyYW9a7-81" value="" style="rounded=0;whiteSpace=wrap;html=1;" vertex="1" parent="1">
          <mxGeometry x="360" y="320" width="20" height="20" as="geometry" />
        </mxCell>
        <mxCell id="-pxFj7mfdjv1AFyYW9a7-82" value="" style="rounded=0;whiteSpace=wrap;html=1;" vertex="1" parent="1">
          <mxGeometry x="380" y="320" width="20" height="20" as="geometry" />
        </mxCell>
        <mxCell id="-pxFj7mfdjv1AFyYW9a7-83" value="" style="rounded=0;whiteSpace=wrap;html=1;" vertex="1" parent="1">
          <mxGeometry x="360" y="340" width="20" height="20" as="geometry" />
        </mxCell>
        <mxCell id="-pxFj7mfdjv1AFyYW9a7-84" value="" style="rounded=0;whiteSpace=wrap;html=1;" vertex="1" parent="1">
          <mxGeometry x="380" y="340" width="20" height="20" as="geometry" />
        </mxCell>
        <mxCell id="-pxFj7mfdjv1AFyYW9a7-85" value="" style="rounded=0;whiteSpace=wrap;html=1;" vertex="1" parent="1">
          <mxGeometry x="360" y="360" width="20" height="20" as="geometry" />
        </mxCell>
        <mxCell id="-pxFj7mfdjv1AFyYW9a7-86" value="" style="rounded=0;whiteSpace=wrap;html=1;" vertex="1" parent="1">
          <mxGeometry x="380" y="360" width="20" height="20" as="geometry" />
        </mxCell>
        <mxCell id="-pxFj7mfdjv1AFyYW9a7-87" value="" style="rounded=0;whiteSpace=wrap;html=1;" vertex="1" parent="1">
          <mxGeometry x="360" y="380" width="20" height="20" as="geometry" />
        </mxCell>
        <mxCell id="-pxFj7mfdjv1AFyYW9a7-88" value="" style="rounded=0;whiteSpace=wrap;html=1;" vertex="1" parent="1">
          <mxGeometry x="380" y="380" width="20" height="20" as="geometry" />
        </mxCell>
        <mxCell id="-pxFj7mfdjv1AFyYW9a7-89" value="" style="rounded=0;whiteSpace=wrap;html=1;" vertex="1" parent="1">
          <mxGeometry x="360" y="400" width="20" height="20" as="geometry" />
        </mxCell>
        <mxCell id="-pxFj7mfdjv1AFyYW9a7-90" value="" style="rounded=0;whiteSpace=wrap;html=1;" vertex="1" parent="1">
          <mxGeometry x="380" y="400" width="20" height="20" as="geometry" />
        </mxCell>
        <mxCell id="-pxFj7mfdjv1AFyYW9a7-91" value="" style="rounded=0;whiteSpace=wrap;html=1;" vertex="1" parent="1">
          <mxGeometry x="400" y="320" width="20" height="20" as="geometry" />
        </mxCell>
        <mxCell id="-pxFj7mfdjv1AFyYW9a7-92" value="" style="rounded=0;whiteSpace=wrap;html=1;" vertex="1" parent="1">
          <mxGeometry x="420" y="320" width="20" height="20" as="geometry" />
        </mxCell>
        <mxCell id="-pxFj7mfdjv1AFyYW9a7-93" value="" style="rounded=0;whiteSpace=wrap;html=1;" vertex="1" parent="1">
          <mxGeometry x="400" y="340" width="20" height="20" as="geometry" />
        </mxCell>
        <mxCell id="-pxFj7mfdjv1AFyYW9a7-94" value="" style="rounded=0;whiteSpace=wrap;html=1;" vertex="1" parent="1">
          <mxGeometry x="420" y="340" width="20" height="20" as="geometry" />
        </mxCell>
        <mxCell id="-pxFj7mfdjv1AFyYW9a7-95" value="" style="rounded=0;whiteSpace=wrap;html=1;" vertex="1" parent="1">
          <mxGeometry x="400" y="360" width="20" height="20" as="geometry" />
        </mxCell>
        <mxCell id="-pxFj7mfdjv1AFyYW9a7-96" value="" style="rounded=0;whiteSpace=wrap;html=1;" vertex="1" parent="1">
          <mxGeometry x="420" y="360" width="20" height="20" as="geometry" />
        </mxCell>
        <mxCell id="-pxFj7mfdjv1AFyYW9a7-97" value="" style="rounded=0;whiteSpace=wrap;html=1;" vertex="1" parent="1">
          <mxGeometry x="400" y="380" width="20" height="20" as="geometry" />
        </mxCell>
        <mxCell id="-pxFj7mfdjv1AFyYW9a7-98" value="" style="rounded=0;whiteSpace=wrap;html=1;" vertex="1" parent="1">
          <mxGeometry x="420" y="380" width="20" height="20" as="geometry" />
        </mxCell>
        <mxCell id="-pxFj7mfdjv1AFyYW9a7-99" value="" style="rounded=0;whiteSpace=wrap;html=1;" vertex="1" parent="1">
          <mxGeometry x="400" y="400" width="20" height="20" as="geometry" />
        </mxCell>
        <mxCell id="-pxFj7mfdjv1AFyYW9a7-100" value="" style="rounded=0;whiteSpace=wrap;html=1;" vertex="1" parent="1">
          <mxGeometry x="420" y="400" width="20" height="20" as="geometry" />
        </mxCell>
        <mxCell id="-pxFj7mfdjv1AFyYW9a7-101" value="" style="endArrow=classic;html=1;rounded=0;" edge="1" parent="1">
          <mxGeometry width="50" height="50" relative="1" as="geometry">
            <mxPoint x="180" y="320" as="sourcePoint" />
            <mxPoint x="180" y="420" as="targetPoint" />
          </mxGeometry>
        </mxCell>
        <mxCell id="-pxFj7mfdjv1AFyYW9a7-102" value="x" style="edgeLabel;html=1;align=center;verticalAlign=middle;resizable=0;points=[];labelBackgroundColor=none;" vertex="1" connectable="0" parent="-pxFj7mfdjv1AFyYW9a7-101">
          <mxGeometry x="0.7343" y="-1" relative="1" as="geometry">
            <mxPoint x="-9" y="3" as="offset" />
          </mxGeometry>
        </mxCell>
        <mxCell id="-pxFj7mfdjv1AFyYW9a7-103" value="" style="endArrow=classic;html=1;rounded=0;" edge="1" parent="1">
          <mxGeometry width="50" height="50" relative="1" as="geometry">
            <mxPoint x="200" y="300" as="sourcePoint" />
            <mxPoint x="440" y="300" as="targetPoint" />
          </mxGeometry>
        </mxCell>
        <mxCell id="-pxFj7mfdjv1AFyYW9a7-104" value="z" style="edgeLabel;html=1;align=center;verticalAlign=middle;resizable=0;points=[];labelBackgroundColor=none;" vertex="1" connectable="0" parent="-pxFj7mfdjv1AFyYW9a7-103">
          <mxGeometry x="0.9143" y="2" relative="1" as="geometry">
            <mxPoint y="-8" as="offset" />
          </mxGeometry>
        </mxCell>
        <mxCell id="-pxFj7mfdjv1AFyYW9a7-119" value="" style="group;" vertex="1" connectable="0" parent="1">
          <mxGeometry x="480" y="310" width="30" height="110" as="geometry" />
        </mxCell>
        <mxCell id="-pxFj7mfdjv1AFyYW9a7-120" value="" style="group;" vertex="1" connectable="0" parent="-pxFj7mfdjv1AFyYW9a7-119">
          <mxGeometry width="30" height="30" as="geometry" />
        </mxCell>
        <mxCell id="-pxFj7mfdjv1AFyYW9a7-121" value="" style="whiteSpace=wrap;html=1;aspect=fixed;fillColor=#fff2cc;strokeColor=#d6b656;" vertex="1" parent="-pxFj7mfdjv1AFyYW9a7-120">
          <mxGeometry y="10" width="20" height="20" as="geometry" />
        </mxCell>
        <mxCell id="-pxFj7mfdjv1AFyYW9a7-122" value="" style="shape=parallelogram;perimeter=parallelogramPerimeter;whiteSpace=wrap;html=1;fixedSize=1;size=10;fillColor=#fff2cc;strokeColor=#d6b656;" vertex="1" parent="-pxFj7mfdjv1AFyYW9a7-120">
          <mxGeometry width="30" height="10" as="geometry" />
        </mxCell>
        <mxCell id="-pxFj7mfdjv1AFyYW9a7-123" value="" style="shape=parallelogram;perimeter=parallelogramPerimeter;whiteSpace=wrap;html=1;fixedSize=1;size=10;rotation=90;flipH=1;fillColor=#fff2cc;strokeColor=#d6b656;" vertex="1" parent="-pxFj7mfdjv1AFyYW9a7-120">
          <mxGeometry x="10" y="10" width="30" height="10" as="geometry" />
        </mxCell>
        <mxCell id="-pxFj7mfdjv1AFyYW9a7-124" value="" style="whiteSpace=wrap;html=1;aspect=fixed;fillColor=#fff2cc;strokeColor=#d6b656;" vertex="1" parent="-pxFj7mfdjv1AFyYW9a7-119">
          <mxGeometry y="30" width="20" height="20" as="geometry" />
        </mxCell>
        <mxCell id="-pxFj7mfdjv1AFyYW9a7-125" value="" style="whiteSpace=wrap;html=1;aspect=fixed;fillColor=#fff2cc;strokeColor=#d6b656;" vertex="1" parent="-pxFj7mfdjv1AFyYW9a7-119">
          <mxGeometry y="50" width="20" height="20" as="geometry" />
        </mxCell>
        <mxCell id="-pxFj7mfdjv1AFyYW9a7-126" value="" style="whiteSpace=wrap;html=1;aspect=fixed;fillColor=#fff2cc;strokeColor=#d6b656;" vertex="1" parent="-pxFj7mfdjv1AFyYW9a7-119">
          <mxGeometry y="70" width="20" height="20" as="geometry" />
        </mxCell>
        <mxCell id="-pxFj7mfdjv1AFyYW9a7-127" value="" style="whiteSpace=wrap;html=1;aspect=fixed;fillColor=#fff2cc;strokeColor=#d6b656;" vertex="1" parent="-pxFj7mfdjv1AFyYW9a7-119">
          <mxGeometry y="90" width="20" height="20" as="geometry" />
        </mxCell>
        <mxCell id="-pxFj7mfdjv1AFyYW9a7-128" value="" style="shape=parallelogram;perimeter=parallelogramPerimeter;whiteSpace=wrap;html=1;fixedSize=1;size=10;rotation=90;flipH=1;fillColor=#fff2cc;strokeColor=#d6b656;" vertex="1" parent="-pxFj7mfdjv1AFyYW9a7-119">
          <mxGeometry x="10" y="30" width="30" height="10" as="geometry" />
        </mxCell>
        <mxCell id="-pxFj7mfdjv1AFyYW9a7-129" value="" style="shape=parallelogram;perimeter=parallelogramPerimeter;whiteSpace=wrap;html=1;fixedSize=1;size=10;rotation=90;flipH=1;fillColor=#fff2cc;strokeColor=#d6b656;" vertex="1" parent="-pxFj7mfdjv1AFyYW9a7-119">
          <mxGeometry x="10" y="50" width="30" height="10" as="geometry" />
        </mxCell>
        <mxCell id="-pxFj7mfdjv1AFyYW9a7-130" value="" style="shape=parallelogram;perimeter=parallelogramPerimeter;whiteSpace=wrap;html=1;fixedSize=1;size=10;rotation=90;flipH=1;fillColor=#fff2cc;strokeColor=#d6b656;" vertex="1" parent="-pxFj7mfdjv1AFyYW9a7-119">
          <mxGeometry x="10" y="70" width="30" height="10" as="geometry" />
        </mxCell>
        <mxCell id="-pxFj7mfdjv1AFyYW9a7-131" value="" style="shape=parallelogram;perimeter=parallelogramPerimeter;whiteSpace=wrap;html=1;fixedSize=1;size=10;rotation=90;flipH=1;fillColor=#fff2cc;strokeColor=#d6b656;" vertex="1" parent="-pxFj7mfdjv1AFyYW9a7-119">
          <mxGeometry x="10" y="90" width="30" height="10" as="geometry" />
        </mxCell>
        <mxCell id="-pxFj7mfdjv1AFyYW9a7-135" value="" style="curved=1;endArrow=classic;html=1;rounded=0;fillColor=#fff2cc;strokeColor=#d6b656;entryX=0.5;entryY=1;entryDx=0;entryDy=0;" edge="1" parent="1" target="-pxFj7mfdjv1AFyYW9a7-144">
          <mxGeometry width="50" height="50" relative="1" as="geometry">
            <mxPoint x="290" y="390" as="sourcePoint" />
            <mxPoint x="550" y="430" as="targetPoint" />
            <Array as="points">
              <mxPoint x="510" y="500" />
            </Array>
          </mxGeometry>
        </mxCell>
        <mxCell id="-pxFj7mfdjv1AFyYW9a7-136" value="" style="group;" vertex="1" connectable="0" parent="1">
          <mxGeometry x="570" y="310" width="30" height="110" as="geometry" />
        </mxCell>
        <mxCell id="-pxFj7mfdjv1AFyYW9a7-137" value="" style="group;" vertex="1" connectable="0" parent="-pxFj7mfdjv1AFyYW9a7-136">
          <mxGeometry width="30" height="30" as="geometry" />
        </mxCell>
        <mxCell id="-pxFj7mfdjv1AFyYW9a7-138" value="" style="whiteSpace=wrap;html=1;aspect=fixed;fillColor=#fff2cc;strokeColor=#d6b656;" vertex="1" parent="-pxFj7mfdjv1AFyYW9a7-137">
          <mxGeometry y="10" width="20" height="20" as="geometry" />
        </mxCell>
        <mxCell id="-pxFj7mfdjv1AFyYW9a7-139" value="" style="shape=parallelogram;perimeter=parallelogramPerimeter;whiteSpace=wrap;html=1;fixedSize=1;size=10;fillColor=#fff2cc;strokeColor=#d6b656;" vertex="1" parent="-pxFj7mfdjv1AFyYW9a7-137">
          <mxGeometry width="30" height="10" as="geometry" />
        </mxCell>
        <mxCell id="-pxFj7mfdjv1AFyYW9a7-140" value="" style="shape=parallelogram;perimeter=parallelogramPerimeter;whiteSpace=wrap;html=1;fixedSize=1;size=10;rotation=90;flipH=1;fillColor=#fff2cc;strokeColor=#d6b656;" vertex="1" parent="-pxFj7mfdjv1AFyYW9a7-137">
          <mxGeometry x="10" y="10" width="30" height="10" as="geometry" />
        </mxCell>
        <mxCell id="-pxFj7mfdjv1AFyYW9a7-141" value="" style="whiteSpace=wrap;html=1;aspect=fixed;fillColor=#fff2cc;strokeColor=#d6b656;" vertex="1" parent="-pxFj7mfdjv1AFyYW9a7-136">
          <mxGeometry y="30" width="20" height="20" as="geometry" />
        </mxCell>
        <mxCell id="-pxFj7mfdjv1AFyYW9a7-142" value="" style="whiteSpace=wrap;html=1;aspect=fixed;fillColor=#fff2cc;strokeColor=#d6b656;" vertex="1" parent="-pxFj7mfdjv1AFyYW9a7-136">
          <mxGeometry y="50" width="20" height="20" as="geometry" />
        </mxCell>
        <mxCell id="-pxFj7mfdjv1AFyYW9a7-143" value="" style="whiteSpace=wrap;html=1;aspect=fixed;fillColor=#fff2cc;strokeColor=#d6b656;" vertex="1" parent="-pxFj7mfdjv1AFyYW9a7-136">
          <mxGeometry y="70" width="20" height="20" as="geometry" />
        </mxCell>
        <mxCell id="-pxFj7mfdjv1AFyYW9a7-144" value="" style="whiteSpace=wrap;html=1;aspect=fixed;fillColor=#fff2cc;strokeColor=#d6b656;" vertex="1" parent="-pxFj7mfdjv1AFyYW9a7-136">
          <mxGeometry y="90" width="20" height="20" as="geometry" />
        </mxCell>
        <mxCell id="-pxFj7mfdjv1AFyYW9a7-145" value="" style="shape=parallelogram;perimeter=parallelogramPerimeter;whiteSpace=wrap;html=1;fixedSize=1;size=10;rotation=90;flipH=1;fillColor=#fff2cc;strokeColor=#d6b656;" vertex="1" parent="-pxFj7mfdjv1AFyYW9a7-136">
          <mxGeometry x="10" y="30" width="30" height="10" as="geometry" />
        </mxCell>
        <mxCell id="-pxFj7mfdjv1AFyYW9a7-146" value="" style="shape=parallelogram;perimeter=parallelogramPerimeter;whiteSpace=wrap;html=1;fixedSize=1;size=10;rotation=90;flipH=1;fillColor=#fff2cc;strokeColor=#d6b656;" vertex="1" parent="-pxFj7mfdjv1AFyYW9a7-136">
          <mxGeometry x="10" y="50" width="30" height="10" as="geometry" />
        </mxCell>
        <mxCell id="-pxFj7mfdjv1AFyYW9a7-147" value="" style="shape=parallelogram;perimeter=parallelogramPerimeter;whiteSpace=wrap;html=1;fixedSize=1;size=10;rotation=90;flipH=1;fillColor=#fff2cc;strokeColor=#d6b656;" vertex="1" parent="-pxFj7mfdjv1AFyYW9a7-136">
          <mxGeometry x="10" y="70" width="30" height="10" as="geometry" />
        </mxCell>
        <mxCell id="-pxFj7mfdjv1AFyYW9a7-148" value="" style="shape=parallelogram;perimeter=parallelogramPerimeter;whiteSpace=wrap;html=1;fixedSize=1;size=10;rotation=90;flipH=1;fillColor=#fff2cc;strokeColor=#d6b656;" vertex="1" parent="-pxFj7mfdjv1AFyYW9a7-136">
          <mxGeometry x="10" y="90" width="30" height="10" as="geometry" />
        </mxCell>
        <mxCell id="-pxFj7mfdjv1AFyYW9a7-152" value="" style="shape=curlyBracket;whiteSpace=wrap;html=1;rounded=1;flipH=1;labelPosition=right;verticalLabelPosition=middle;align=left;verticalAlign=middle;" vertex="1" parent="1">
          <mxGeometry x="510" y="310" width="20" height="110" as="geometry" />
        </mxCell>
        <mxCell id="-pxFj7mfdjv1AFyYW9a7-153" value="" style="shape=curlyBracket;whiteSpace=wrap;html=1;rounded=1;labelPosition=left;verticalLabelPosition=middle;align=right;verticalAlign=middle;" vertex="1" parent="1">
          <mxGeometry x="550" y="310" width="20" height="110" as="geometry" />
        </mxCell>
        <mxCell id="-pxFj7mfdjv1AFyYW9a7-154" value="" style="ellipse;whiteSpace=wrap;html=1;aspect=fixed;fillColor=#d5e8d4;strokeColor=#82b366;" vertex="1" parent="1">
          <mxGeometry x="530" y="355" width="20" height="20" as="geometry" />
        </mxCell>
        <mxCell id="-pxFj7mfdjv1AFyYW9a7-155" value="" style="endArrow=none;html=1;rounded=0;entryX=0.5;entryY=0;entryDx=0;entryDy=0;exitX=0.5;exitY=1;exitDx=0;exitDy=0;fillColor=#d5e8d4;strokeColor=#82b366;" edge="1" parent="1" source="-pxFj7mfdjv1AFyYW9a7-154" target="-pxFj7mfdjv1AFyYW9a7-154">
          <mxGeometry width="50" height="50" relative="1" as="geometry">
            <mxPoint x="530" y="450" as="sourcePoint" />
            <mxPoint x="580" y="400" as="targetPoint" />
          </mxGeometry>
        </mxCell>
        <mxCell id="-pxFj7mfdjv1AFyYW9a7-156" value="" style="endArrow=none;html=1;rounded=0;entryX=1;entryY=0.5;entryDx=0;entryDy=0;exitX=0;exitY=0.5;exitDx=0;exitDy=0;fillColor=#d5e8d4;strokeColor=#82b366;" edge="1" parent="1" source="-pxFj7mfdjv1AFyYW9a7-154" target="-pxFj7mfdjv1AFyYW9a7-154">
          <mxGeometry width="50" height="50" relative="1" as="geometry">
            <mxPoint x="500" y="440" as="sourcePoint" />
            <mxPoint x="550" y="390" as="targetPoint" />
          </mxGeometry>
        </mxCell>
        <mxCell id="-pxFj7mfdjv1AFyYW9a7-157" value="" style="curved=1;endArrow=classic;html=1;rounded=0;fillColor=#fff2cc;strokeColor=#d6b656;entryX=0.5;entryY=0;entryDx=0;entryDy=0;" edge="1" parent="1" target="-pxFj7mfdjv1AFyYW9a7-121">
          <mxGeometry width="50" height="50" relative="1" as="geometry">
            <mxPoint x="310" y="350" as="sourcePoint" />
            <mxPoint x="350" y="450" as="targetPoint" />
            <Array as="points">
              <mxPoint x="370" y="290" />
            </Array>
          </mxGeometry>
        </mxCell>
        <mxCell id="-pxFj7mfdjv1AFyYW9a7-158" value="" style="curved=1;endArrow=none;html=1;rounded=0;entryX=0.5;entryY=1;entryDx=0;entryDy=0;fillColor=#d5e8d4;strokeColor=#82b366;startArrow=classic;startFill=1;endFill=0;" edge="1" parent="1" target="-pxFj7mfdjv1AFyYW9a7-154">
          <mxGeometry width="50" height="50" relative="1" as="geometry">
            <mxPoint x="310" y="370" as="sourcePoint" />
            <mxPoint x="310" y="480" as="targetPoint" />
            <Array as="points">
              <mxPoint x="550" y="500" />
            </Array>
          </mxGeometry>
        </mxCell>
      </root>
    </mxGraphModel>
  </diagram>
</mxfile>
